<svg id="Слой_1" data-name="Слой 1" xmlns="http://www.w3.org/2000/svg" viewBox="0 0 58.08 52.06"><defs><style>.cls-1{fill:#2aa1d3;}</style></defs><title>1</title><path class="cls-1" d="M57.79,21.32l-4.7-4.69a1,1,0,0,0-1.41,0l-.69.69-.38-2.87a1,1,0,0,0-.28-.58L40.78,4.29C32.37-4.12,19.19,2.21,18.63,2.48a1,1,0,0,0,.07,1.83c4,1.62,6.51,3.77,7.47,6.41a7.91,7.91,0,0,1-.33,5.89,1,1,0,0,0,.09,1.07L.32,41.22a1,1,0,0,0,0,1.44l9,9A1,1,0,0,0,10,52h0a1,1,0,0,0,.72-.33L34.24,26a1,1,0,0,0,1.31-.06c.18-.17,4.11-3.94,8-1.13l-1.31,1.32a1,1,0,0,0,0,1.41l4.7,4.69a1,1,0,0,0,1.41,0l9.48-9.48a1,1,0,0,0,0-1.42ZM10,49.55,2.44,42,27.33,19.12l5.48,5.47ZM47.6,30.1l-3.28-3.28,1.27-1.27a.94.94,0,0,0,.12-.08,1,1,0,0,0,0-1.41c-3.91-3.86-8.41-2.08-10.81-.2l-7-7a9.79,9.79,0,0,0,.15-6.8c-1-2.67-3.13-4.89-6.46-6.63C25.46,2.1,33.81.15,39.36,5.71L48.67,15l.6,4.55a.93.93,0,0,0,0,.13.84.84,0,0,0,.2.38l0,.06,0,0a1,1,0,0,0,.24.16l.08,0a1,1,0,0,0,.28.05h.19a1,1,0,0,0,.19-.06l.09,0a1,1,0,0,0,.25-.17l.05,0,1.41-1.41L55.67,22Z" transform="translate(0 0.06)"/></svg>