<svg id="Слой_1" data-name="Слой 1" xmlns="http://www.w3.org/2000/svg" viewBox="0 0 47.39 52.02"><defs><style>.cls-1{fill:#2aa1d3;}</style></defs><title>10</title><path class="cls-1" d="M8.9,7.49a1.36,1.36,0,1,0,1.36,1.36A1.36,1.36,0,0,0,8.9,7.49Zm0,2a.64.64,0,1,1,.64-.64A.64.64,0,0,1,8.9,9.49Z" transform="translate(0 0.02)"/><path class="cls-1" d="M44.8,18.34c-2.67-3.63-9.39-8.28-16-5.33a9.65,9.65,0,0,0-5.88,8.68,10,10,0,0,1-4.79-1.62,6.15,6.15,0,0,1-3-7.13,9.28,9.28,0,0,0,.48-4.64,3.89,3.89,0,0,0,2.34-3.55c.22-2.77-1.93-3-3.22-3.11-.35,0-.72-.07-1.09-.14A3.24,3.24,0,0,1,12.1.88,4.5,4.5,0,0,0,10,0,2.88,2.88,0,0,0,7.4.94,5.45,5.45,0,0,0,6.33,5.42l0,0c-.71.46-1.37,1-2,1.49A18.72,18.72,0,0,1,.58,9.37a1,1,0,0,0,.29,1.9,15.12,15.12,0,0,1,3.76,1C1.5,15.34,1.69,17.76,2.13,19a3.87,3.87,0,0,0,3.63,2.68l-.12.83a61.9,61.9,0,0,0-.83,7.79c0,5.43,4.75,10.32,9.45,12.77a15.29,15.29,0,0,0,6.27,1.45v3.44a14.23,14.23,0,0,0-6.44,2.21,1,1,0,0,0,1.08,1.68,12.24,12.24,0,0,1,9.13-1.69,1,1,0,1,0,.4-2,14.42,14.42,0,0,0-2.17-.26V44.51c4.45-.2,8.92-1.64,10.79-4a13.33,13.33,0,0,0,2.56-6.66,15.92,15.92,0,0,1,1.48-5,3.51,3.51,0,0,1,3.38-1.92,5.46,5.46,0,0,1,4.62,2.81,1,1,0,0,0,1.9-.28C47.59,27,47.46,22,44.8,18.34ZM8.86,2.3A.9.9,0,0,1,9.68,2,2.54,2.54,0,0,1,11,2.53a5.2,5.2,0,0,0,2.25.95c.43.08.86.12,1.26.16,1.48.14,1.48.17,1.42,1a1.93,1.93,0,0,1-1.14,1.88A6.6,6.6,0,0,0,14,5.59,5.43,5.43,0,0,0,8.26,4.51,3.14,3.14,0,0,1,8.86,2.3ZM40.78,24.94a5.54,5.54,0,0,0-5.2,3,17.76,17.76,0,0,0-1.67,5.6c-.37,2.1-.68,3.91-2.15,5.75-2.58,3.23-12,4.37-16.58,2-4.93-2.56-8.37-7.08-8.37-11a61,61,0,0,1,.81-7.5c.66-4.54,1-7.4.53-8.82a1,1,0,0,0-.94-.67l-.19,0a1,1,0,0,0-.81,1c.07,1.49.2,4.6-.42,5.26,0,0-.08.08-.24.08A2,2,0,0,1,4,18.32c-.54-1.49.57-3.51,3-5.55a1,1,0,0,0-.17-1.66A17.13,17.13,0,0,0,3.74,9.84C4.39,9.39,5,8.93,5.52,8.5s1.24-1,1.87-1.38C9,6.09,11.29,5.6,12.6,7s1.28,3,.55,5.41a8.13,8.13,0,0,0,3.91,9.42,11.82,11.82,0,0,0,6.87,1.91,1,1,0,0,0,1-1.09,7.66,7.66,0,0,1,4.65-7.77c5.6-2.48,11.34,1.55,13.64,4.68a13.22,13.22,0,0,1,2.19,7.14A7.77,7.77,0,0,0,40.78,24.94Z" transform="translate(0 0.02)"/><path class="cls-1" d="M28,28.86a1,1,0,0,0-.25,1.39c.46.66.35,3.54-2.37,5.43S16.58,37,14.13,34.41a1,1,0,1,0-1.44,1.38c1.87,1.95,5.18,3,8.31,3a9.89,9.89,0,0,0,5.56-1.48c3.47-2.41,4-6.54,2.87-8.21A1,1,0,0,0,28,28.86Z" transform="translate(0 0.02)"/></svg>