<svg id="Слой_1" data-name="Слой 1" xmlns="http://www.w3.org/2000/svg" viewBox="0 0 51.91 51.93"><defs><style>.cls-1{fill:#2aa1d3;}</style></defs><title>11</title><path class="cls-1" d="M51,9.44a1,1,0,0,0-1.64-.35l-9,8.94L34,11.55l9-8.94A1,1,0,0,0,42.56,1a14.67,14.67,0,0,0-19,18.9l-21.18,18a8.27,8.27,0,0,0,5.91,14,8.37,8.37,0,0,0,5.85-2.4l18-21.11a14.59,14.59,0,0,0,15.58-3.34h0A14.71,14.71,0,0,0,51,9.44ZM46.29,23.65a12.6,12.6,0,0,1-14.05,2.64,1,1,0,0,0-1.16.27L12.71,48.15a6.27,6.27,0,0,1-8.94-8.8L25.44,20.92a1,1,0,0,0,.27-1.16A12.67,12.67,0,0,1,40.33,2.36l-8.49,8.48a1,1,0,0,0,0,1.41l7.9,7.9a1,1,0,0,0,1.41,0l8.49-8.48A12.71,12.71,0,0,1,46.29,23.65Z" transform="translate(-0.09 0.01)"/><path class="cls-1" d="M6.26,41.31h0a3.14,3.14,0,1,0,4.44,0A3.12,3.12,0,0,0,6.26,41.31Zm3,3a1.16,1.16,0,0,1-1.61,0,1.14,1.14,0,0,1,0-1.61,1.14,1.14,0,0,1,1.95.81A1.13,1.13,0,0,1,9.29,44.34Z" transform="translate(-0.09 0.01)"/></svg>