<svg id="Слой_1" data-name="Слой 1" xmlns="http://www.w3.org/2000/svg" viewBox="0 0 53.45 52"><defs><style>.cls-1{fill:#2aa1d3;}</style></defs><title>12</title><path class="cls-1" d="M45.34,27.6,27.42,10.66a1,1,0,0,0-1.37,0l-18,17a1,1,0,0,0-.55.88V51a1,1,0,0,0,1,1H44.92a1,1,0,0,0,1-1V28.5A1,1,0,0,0,45.34,27.6ZM21.31,50V34.58H32.14V50Zm12.83,0V33.58a1,1,0,0,0-1-1H20.31a1,1,0,0,0-1,1V50H9.54V29L26.73,12.77,43.92,29V50Z" transform="translate(0 0)"/><path class="cls-1" d="M53.14,24.56,27.42.27A1,1,0,0,0,26,.27L.31,24.56A1,1,0,1,0,1.69,26l25-23.64L51.76,26a1,1,0,0,0,1.37-1.45Z" transform="translate(0 0)"/></svg>