<svg id="Слой_1" data-name="Слой 1" xmlns="http://www.w3.org/2000/svg" viewBox="0 0 61.01 52"><defs><style>.cls-1{fill:#2aa1d3;}</style></defs><title>4</title><path class="cls-1" d="M58,7.59H40.5V2a2,2,0,0,0-2-2h-16a2,2,0,0,0-2,2V7.59H3a3,3,0,0,0-3,3V49a3,3,0,0,0,3,3H58a3,3,0,0,0,3-3V10.59A3,3,0,0,0,58,7.59ZM22.52,2h16V7.59h-16ZM3,9.59H58a1,1,0,0,1,1,1V23.18L34.27,30V26.82a1,1,0,0,0-1-1H27.74a1,1,0,0,0-1,1V30L2,23.18V10.59A1,1,0,0,1,3,9.59ZM32.27,27.82v7H28.74v-7ZM58,50H3a1,1,0,0,1-1-1V25.25l24.74,6.82v3.74a1,1,0,0,0,1,1h5.53a1,1,0,0,0,1-1V32.07L59,25.25V49A1,1,0,0,1,58,50Z"/></svg>