<svg id="Слой_1" data-name="Слой 1" xmlns="http://www.w3.org/2000/svg" viewBox="0 0 83.87 47"><defs><style>.cls-1{fill:#2aa1d3;}</style></defs><title>2</title><path class="cls-1" d="M81,21.43l-6-5.87L70.15,4.94A8.55,8.55,0,0,0,62.42,0H6.64A6.65,6.65,0,0,0,0,6.64V33.55a6.13,6.13,0,0,0,6.12,6.12h5.14a8.32,8.32,0,0,0,16.53,0h29a8.32,8.32,0,0,0,16.53,0h4.47a6.13,6.13,0,0,0,6.12-6.12V28.28A9.72,9.72,0,0,0,81,21.43ZM19.52,45a6.33,6.33,0,1,1,6.33-6.33A6.34,6.34,0,0,1,19.52,45ZM65,45a6.33,6.33,0,1,1,6.33-6.33A6.34,6.34,0,0,1,65,45ZM81.87,33.51a4.13,4.13,0,0,1-4.12,4.12H73.27a8.32,8.32,0,0,0-16.52,0h-29a8.32,8.32,0,0,0-16.53,0H6.12A4.12,4.12,0,0,1,2,33.55V6.64A4.65,4.65,0,0,1,6.65,2H62.42a6.54,6.54,0,0,1,5.91,3.78l5,10.78a1,1,0,0,0,.21.29l6.08,6a7.7,7.7,0,0,1,2.25,5.43Z"/><path class="cls-1" d="M57.87,19h-39a1,1,0,0,0,0,2h39a1,1,0,0,0,0-2Z"/></svg>