<svg id="Слой_1" data-name="Слой 1" xmlns="http://www.w3.org/2000/svg" viewBox="0 0 44.18 52"><defs><style>.cls-1{fill:#2aa1d3;}</style></defs><title>3</title><path class="cls-1" d="M44.18,9.19V1a1,1,0,0,0-1-1H1A1,1,0,0,0,0,1V18.89A34.45,34.45,0,0,0,9.17,43a1,1,0,0,0,.13.19,1,1,0,0,0,.13.09,37.18,37.18,0,0,0,12.31,8.7,1,1,0,0,0,.7,0c.22-.08,21.74-8.42,21.74-33V9.31A1,1,0,0,0,44.18,9.19Zm-2-.35L10,41a31.65,31.65,0,0,1-5.71-9.42L33.89,2h8.29ZM2,2H31.07L3.55,29.52A35.71,35.71,0,0,1,2,18.89ZM22.09,49.92A34.5,34.5,0,0,1,11.35,42.5L42.18,11.67v7.22C42.18,40.7,24.88,48.76,22.09,49.92Z"/></svg>