<svg id="Слой_1" data-name="Слой 1" xmlns="http://www.w3.org/2000/svg" viewBox="0 0 59.59 52"><defs><style>.cls-1{fill:#2aa1d3;}</style></defs><title>5</title><path class="cls-1" d="M56.59,0H3A3,3,0,0,0,0,3V40.4a3,3,0,0,0,3,3H24.47L21.37,50h-3a1,1,0,0,0,0,2H41.27a1,1,0,0,0,0-2h-3l-3.11-6.6H56.59a3,3,0,0,0,3-3V3A3,3,0,0,0,56.59,0ZM36,50H23.58l3.11-6.6h6.23Zm21.57-9.6a1,1,0,0,1-1,1H3a1,1,0,0,1-1-1V3A1,1,0,0,1,3,2H56.59a1,1,0,0,1,1,1Z"/><path class="cls-1" d="M52.19,5.4H7.4a2,2,0,0,0-2,2V34.2a2,2,0,0,0,2,2H52.19a2,2,0,0,0,2-2V7.4A2,2,0,0,0,52.19,5.4Zm0,28.8H7.4V7.4H52.19Z"/><path class="cls-1" d="M24,27.05a1,1,0,0,0,1.11-.3l2.16-2.62,3,6.19a1,1,0,0,0,1.32.48L34,29.65a1,1,0,0,0,.49-1.34l-3-6.15H35.3A1,1,0,0,0,36,20.4l-11-9.46a1,1,0,0,0-1.65.76V26.11A1,1,0,0,0,24,27.05Zm1.34-13.17,7.31,6.28H30a1,1,0,0,0-.9,1.43l3.2,6.66-.69.32-3.22-6.71a1,1,0,0,0-.78-.56h-.12a1,1,0,0,0-.77.36l-1.39,1.68Z"/></svg>