<svg id="Слой_1" data-name="Слой 1" xmlns="http://www.w3.org/2000/svg" viewBox="0 0 63.45 52.02"><defs><style>.cls-1{fill:#2aa1d3;}</style></defs><title>6</title><path class="cls-1" d="M62.43,25.07H59.08a1,1,0,0,0-.66,0H41.7l-4.83-7.61A1,1,0,0,0,36,17a1,1,0,0,0-.84.57l-7,14.61L22.4,25.42a1,1,0,0,0-.76-.35H5.14A13.9,13.9,0,0,1,6.67,5.86,15.26,15.26,0,0,1,27,5.85l4,3.72a1,1,0,0,0,1.35,0l4-3.71a15.28,15.28,0,0,1,20.29,0A13.87,13.87,0,0,1,61,19.66a1,1,0,0,0,1.94.48A15.86,15.86,0,0,0,58.05,4.36a17.28,17.28,0,0,0-23,0l-3.38,3.1L28.33,4.36a17.26,17.26,0,0,0-23,0A15.92,15.92,0,0,0,2.65,25.07H1a1,1,0,1,0,0,2H21.18l6.41,7.58a1,1,0,0,0,.76.35h.13a1,1,0,0,0,.77-.56l6.9-14.37,4.15,6.55a1,1,0,0,0,.84.46H56.3L31.71,49.64l-21.8-20A1,1,0,1,0,8.55,31.1L31,51.74a1,1,0,0,0,1.35,0L58.07,28.16c.37-.35.72-.71,1.05-1.09h3.3a1,1,0,1,0,0-2Z" transform="translate(0 0.02)"/></svg>