<svg id="Слой_1" data-name="Слой 1" xmlns="http://www.w3.org/2000/svg" viewBox="0 0 69.34 52"><defs><style>.cls-1{fill:#2aa1d3;}</style></defs><title>7</title><path class="cls-1" d="M69.32,47.7,67.51,39s0,0,0,0l0,0-6-28.69s0,0,0,0v0L59.7,1.41A1,1,0,0,0,58.52.64L43.65,3.73a1,1,0,0,0-.78,1.18L52.49,51.2a1,1,0,0,0,1,.8l.2,0,14.87-3.09A1,1,0,0,0,69.32,47.7ZM46.85,14.25l12.91-2.68,5.57,26.81L52.42,41.06ZM57.95,2.8l1.41,6.81L46.45,12.29,45,5.48Zm-3.7,47L52.83,43l12.91-2.68,1.41,6.8Z"/><path class="cls-1" d="M38.15,3.88H21a1,1,0,0,0-1,1V51a1,1,0,0,0,1,1H38.15a1,1,0,0,0,1-1V4.88A1,1,0,0,0,38.15,3.88ZM22,14.6H37.15V41.27H22ZM37.15,5.88V12.6H22V5.88ZM22,50V43.27H37.15V50Z"/><path class="cls-1" d="M15.55,0H1A1,1,0,0,0,0,1V51a1,1,0,0,0,1,1H15.55a1,1,0,0,0,1-1V1A1,1,0,0,0,15.55,0ZM2,11.46H14.55V40.54H2ZM14.55,2V9.46H2V2ZM2,50V42.54H14.55V50Z"/></svg>