<svg id="Слой_1" data-name="Слой 1" xmlns="http://www.w3.org/2000/svg" viewBox="0 0 50.58 52"><defs><style>.cls-1{fill:#2aa1d3;}</style></defs><title>8</title><path class="cls-1" d="M49.56,45.07h-10a17.86,17.86,0,0,0,9.68-15.85V19a1,1,0,0,0-1-1h-38a1,1,0,0,0-1,1v1.69A8.81,8.81,0,0,0,6,37.86l7.06,2.43a18,18,0,0,0,5.81,4.79h-10a1,1,0,0,0-1,1V48a4,4,0,0,0,4,4H46.56a4,4,0,0,0,4-4V46.07A1,1,0,0,0,49.56,45.07ZM9.69,33.15l-1.85-.64a3.17,3.17,0,0,1,1.4-6.14v2.85A17.81,17.81,0,0,0,9.69,33.15ZM6.68,36A6.81,6.81,0,0,1,9.24,22.69v1.68a5.16,5.16,0,0,0-2,10l3.21,1.1a17.77,17.77,0,0,0,.91,2Zm4.56-6.74V20H38v4.63H35.87a1,1,0,0,0-1,1V33.4a1,1,0,0,0,1,1h6.21a1,1,0,0,0,1-1V25.63a1,1,0,0,0-1-1H40V20h7.26v9.22A15.87,15.87,0,0,1,31.4,45.07H27.09A15.87,15.87,0,0,1,11.24,29.22Zm29.84-2.59V32.4H36.87V26.63ZM48.56,48a2,2,0,0,1-2,2H11.93a2,2,0,0,1-2-2v-.93H48.56Z" transform="translate(0.02 0)"/><path class="cls-1" d="M35.56,14.56a1,1,0,0,0,1.51-1.31,2.28,2.28,0,0,1,0-3,4.29,4.29,0,0,0,0-5.62,2.28,2.28,0,0,1,0-3A1,1,0,1,0,35.56.34a4.29,4.29,0,0,0,0,5.61,2.28,2.28,0,0,1,0,3A4.29,4.29,0,0,0,35.56,14.56Z" transform="translate(0.02 0)"/><path class="cls-1" d="M28.5,14.56A1,1,0,1,0,30,13.24a2.28,2.28,0,0,1,0-3,4.29,4.29,0,0,0,0-5.62,2.28,2.28,0,0,1,0-3A1,1,0,1,0,28.5.34,4.28,4.28,0,0,0,28.5,6a2.28,2.28,0,0,1,0,3A4.28,4.28,0,0,0,28.5,14.56Z" transform="translate(0.02 0)"/><path class="cls-1" d="M21.43,14.56a1,1,0,0,0,1.51-1.32,2.28,2.28,0,0,1,0-3,4.29,4.29,0,0,0,0-5.62,2.28,2.28,0,0,1,0-3A1,1,0,1,0,21.43.34a4.29,4.29,0,0,0,0,5.61,2.28,2.28,0,0,1,0,3A4.29,4.29,0,0,0,21.43,14.56Z" transform="translate(0.02 0)"/></svg>