<svg id="Слой_1" data-name="Слой 1" xmlns="http://www.w3.org/2000/svg" viewBox="0 0 42.85 52"><defs><style>.cls-1{fill:#2aa1d3;}</style></defs><title>9</title><path class="cls-1" d="M40.55,0H2.3A2.3,2.3,0,0,0,0,2.3V49.7A2.3,2.3,0,0,0,2.3,52H40.55a2.3,2.3,0,0,0,2.3-2.3V2.3A2.3,2.3,0,0,0,40.55,0Zm.3,49.7a.3.3,0,0,1-.3.3H2.3a.3.3,0,0,1-.3-.3V2.3A.3.3,0,0,1,2.3,2H40.55a.3.3,0,0,1,.3.3Z"/><path class="cls-1" d="M21.43,14.6A15.79,15.79,0,1,0,37.22,30.39,15.81,15.81,0,0,0,21.43,14.6Zm0,29.58A13.79,13.79,0,1,1,35.22,30.39,13.81,13.81,0,0,1,21.43,44.18Z"/><path class="cls-1" d="M21.43,19.42a11,11,0,1,0,11,11A11,11,0,0,0,21.43,19.42Zm0,19.94a9,9,0,1,1,9-9A9,9,0,0,1,21.43,39.36Z"/><path class="cls-1" d="M9,11.08A3.41,3.41,0,1,0,5.64,7.67,3.41,3.41,0,0,0,9,11.08ZM9,6.26A1.41,1.41,0,1,1,7.64,7.67,1.41,1.41,0,0,1,9,6.26Z"/><path class="cls-1" d="M20.61,8.67h2a1,1,0,0,0,0-2h-2a1,1,0,0,0,0,2Z"/><path class="cls-1" d="M27.42,8.67h2a1,1,0,0,0,0-2h-2a1,1,0,0,0,0,2Z"/><path class="cls-1" d="M36.22,6.67h-2a1,1,0,0,0,0,2h2a1,1,0,0,0,0-2Z"/></svg>