<svg xmlns="http://www.w3.org/2000/svg" width="13.687" height="13.72" viewBox="0 0 13.687 13.72">
  <defs>
    <style>
      .cls-1 {
        fill: #8ab71b;
        fill-rule: evenodd;
      }
    </style>
  </defs>
  <path id="_" data-name="" class="cls-1" d="M377.609,1013.52a0.554,0.554,0,0,1-.8,0l-0.91-.91a0.56,0.56,0,0,1,0-.8l2.74-2.74-2.74-2.74a0.56,0.56,0,0,1,0-.8l0.91-.91a0.554,0.554,0,0,1,.8,0l4.053,4.05a0.562,0.562,0,0,1,0,.8Zm7.311-4.45a6.856,6.856,0,1,0-6.855,6.85A6.858,6.858,0,0,0,384.92,1009.07Z" transform="translate(-371.219 -1002.22)"/>
</svg>
