<svg xmlns="http://www.w3.org/2000/svg" width="30.88" height="19.66" viewBox="0 0 30.88 19.66">
  <defs>
    <style>
      .cls-1 {
        fill: #707a8c;
        fill-rule: evenodd;
      }
    </style>
  </defs>
  <path id="googleplus" class="cls-1" d="M1256.81,3440.65a7.922,7.922,0,0,0-.16-1.64h-9.27v3.38h5.58a5.326,5.326,0,0,1-5.58,4.23,6.2,6.2,0,0,1,0-12.4,5.479,5.479,0,0,1,3.91,1.51l2.67-2.56a9.369,9.369,0,0,0-6.58-2.57,9.82,9.82,0,0,0,0,19.64C1253.05,3450.24,1256.81,3446.26,1256.81,3440.65Zm11.62-1.64h-2.8v-2.8h-2.81v2.8h-2.8v2.82h2.8v2.8h2.81v-2.8h2.8v-2.82Z" transform="translate(-1237.56 -3430.59)"/>
</svg>
