<svg xmlns="http://www.w3.org/2000/svg" viewBox="0 0 41.04 42"><defs><style>.cls-1{fill:#2aa1d3;}</style></defs><title>like</title><g id="Слой_2" data-name="Слой 2"><g id="Layer_1" data-name="Layer 1"><path class="cls-1" d="M41,24.55a4.15,4.15,0,0,0-1-2.87,4.51,4.51,0,0,0,1-3.11,3.94,3.94,0,0,0-3.53-4H27.73c-.1,0-.12,0-.15-.06s-.23-.81.23-1.86a18.12,18.12,0,0,0,1.91-6.85C29.72,3,28.28,0,25.59,0,24,0,23.82,1.1,23.68,1.83c0,.13-.05.26-.09.42a23.33,23.33,0,0,1-3.85,7.32c-2.52,3.25-3.92,5.3-6.3,9a7.41,7.41,0,0,1-4.81,3.65V20.1a1,1,0,0,0-1-1H1a1,1,0,0,0-1,1V41a1,1,0,0,0,1,1H7.63a1,1,0,0,0,1-1V38.61h5.88A7.28,7.28,0,0,1,16.3,39a30.89,30.89,0,0,0,9.38,1.21c8,0,11.43-1,11.83-3.33a5,5,0,0,0-.15-2.74,4,4,0,0,0,2.58-3.57A4.65,4.65,0,0,0,39.25,28,4.29,4.29,0,0,0,41,24.55ZM6.63,40H2V21.1H6.63ZM38,22.6a2,2,0,0,1,1.05,2c0,1.54-1.81,2.31-1.83,2.32a1,1,0,0,0-.65,1,1,1,0,0,0,.67.91s.7.33.7,1.83-2.29,2.07-2.31,2.07a1,1,0,0,0-.5,1.66c.36.38.65.83.42,2.23,0,.28-.75,1.66-9.86,1.66a29.08,29.08,0,0,1-8.83-1.14,8.62,8.62,0,0,0-2.33-.45H8.63V24.21c2.51-.33,4.74-1.89,6.49-4.58C17.47,16,18.85,14,21.32,10.8a24.76,24.76,0,0,0,4.22-8.11c0-.17.07-.33.1-.47l0-.21c1.39.09,2,2.31,2,3.83A16.65,16.65,0,0,1,26,11.88a4,4,0,0,0-.07,3.76,2.13,2.13,0,0,0,1.82,1h9.59a1.93,1.93,0,0,1,1.72,2c0,1.75-.88,2.09-.95,2.12A1,1,0,0,0,38,22.6Z"/></g></g></svg>