<svg xmlns="http://www.w3.org/2000/svg" width="14.43" height="24.03" viewBox="0 0 14.43 24.03">
  <defs>
    <style>
      .cls-1 {
        fill: #707a8c;
        fill-rule: evenodd;
      }
    </style>
  </defs>
  <path id="ok" class="cls-1" d="M1183.14,3440.57a6.075,6.075,0,1,0-6.09-6.07A6.082,6.082,0,0,0,1183.14,3440.57Zm0-9.07a3,3,0,1,1-2.99,3A2.992,2.992,0,0,1,1183.14,3431.5Zm7,9.8c-0.35-.68-1.3-1.26-2.56-0.26a7.993,7.993,0,0,1-8.89,0c-1.26-1-2.21-.42-2.56.26-0.59,1.21.08,1.79,1.61,2.78a10.31,10.31,0,0,0,4.24,1.26l-0.96.96c-1.37,1.35-2.67,2.67-3.58,3.58a1.382,1.382,0,0,0,0,1.97l0.16,0.17a1.4,1.4,0,0,0,1.97,0l3.58-3.59c1.37,1.37,2.68,2.68,3.58,3.59a1.412,1.412,0,0,0,1.98,0l0.16-.17a1.4,1.4,0,0,0,0-1.97l-3.58-3.58-0.97-.96a10.448,10.448,0,0,0,4.22-1.26C1190.06,3443.09,1190.73,3442.51,1190.14,3441.3Z" transform="translate(-1175.91 -3428.41)"/>
</svg>
