<svg xmlns="http://www.w3.org/2000/svg" viewBox="0 0 41.99 41.99"><defs><style>.cls-1{fill:#2aa1d3;}</style></defs><title>phone</title><g id="Слой_2" data-name="Слой 2"><g id="Layer_1" data-name="Layer 1"><path class="cls-1" d="M38.81,29c-5.67-4.56-8-3-10.81-.11l-.44.44c-.42.42-1.58.07-3.12-.93a39.19,39.19,0,0,1-5.82-5c-7.23-7.23-6.08-8.79-5.93-8.94l.43-.43C16,11.14,17.58,8.85,13,3.18,11.37,1.11,9.73.08,8,0c-2.48-.13-4.38,1.9-5.9,3.5l-.75.78C-.43,6.09-.46,10,1.31,14.62,3.21,19.68,7,25.17,11.9,30.1s10.42,8.68,15.47,10.59A18,18,0,0,0,33.56,42a5.73,5.73,0,0,0,4.15-1.36l.78-.75C40.09,38.35,42.09,36.45,42,34,41.92,32.26,40.88,30.63,38.81,29ZM37.1,38.43l-.81.79c-.9.91-3.59,1.34-8.22-.4C23.28,37,18,33.41,13.31,28.68S5,18.71,3.18,13.92C1.44,9.3,1.87,6.61,2.78,5.7l.79-.82C4.85,3.53,6.31,2,7.84,2h.09c1.08,0,2.27.86,3.53,2.43,3.77,4.69,2.6,5.84.26,8.14l-.45.44c-2,2-.11,5.73,5.93,11.77A41,41,0,0,0,23.36,30c2.53,1.65,4.42,1.87,5.62.67l.45-.45c2.3-2.33,3.45-3.5,8.13.27C39.13,31.79,39.94,33,40,34.05,40.05,35.62,38.49,37.11,37.1,38.43Z"/><path class="cls-1" d="M41.91.62A1,1,0,0,0,41,0H30.69a1,1,0,1,0,0,2h7.89L26.81,13.77a1,1,0,1,0,1.41,1.41L40,3.41v7.89a1,1,0,0,0,2,0V1A1,1,0,0,0,41.91.62Z"/></g></g></svg>