<svg xmlns="http://www.w3.org/2000/svg" width="97.812" height="97.72" viewBox="0 0 97.812 97.72">
  <defs>
    <style>
      .cls-1 {
        fill: #fffeff;
        fill-rule: evenodd;
        opacity: 0.7;
      }
    </style>
  </defs>
  <path id="play" class="cls-1" d="M484.591,2379.44a3.966,3.966,0,0,0-2.038-3.5l-34.642-20.35a4.042,4.042,0,0,0-4.076-.07,4.15,4.15,0,0,0-2.038,3.57v40.71a4.134,4.134,0,0,0,2.038,3.56,4.574,4.574,0,0,0,2.038.51,3.969,3.969,0,0,0,2.038-.57l34.642-20.36A3.955,3.955,0,0,0,484.591,2379.44Zm8.151,0a34.643,34.643,0,1,1-34.642-34.61A34.66,34.66,0,0,1,492.742,2379.44Zm14.264,0A48.907,48.907,0,1,0,458.1,2428.3,48.9,48.9,0,0,0,507.006,2379.44Z" transform="translate(-409.188 -2330.59)"/>
</svg>
