<svg xmlns="http://www.w3.org/2000/svg" viewBox="0 0 32.33 32.32"><defs><style>.cls-1{fill:#515866;}.cls-2{fill:#b0cb1f;}</style></defs><title>plus</title><g id="Слой_2" data-name="Слой 2"><g id="Layer_1" data-name="Layer 1"><path class="cls-1" d="M16.17,1A15.16,15.16,0,1,1,1,16.16,15.18,15.18,0,0,1,16.17,1m0-1A16.16,16.16,0,1,0,32.33,16.16,16.17,16.17,0,0,0,16.17,0Z"/><path class="cls-2" d="M23.48,15.66H16.82V9a.5.5,0,0,0-1,0v6.66H9.16a.5.5,0,0,0,0,1h6.66v6.66a.5.5,0,0,0,1,0V16.66h6.66a.5.5,0,0,0,0-1Z"/></g></g></svg>