<svg xmlns="http://www.w3.org/2000/svg" width="92.875" height="78.56" viewBox="0 0 92.875 78.56">
  <defs>
    <style>
      .cls-1 {
        fill: #2aa1d3;
        fill-rule: evenodd;
      }
    </style>
  </defs>
  <path id="quotte" class="cls-1" d="M254.428,3025.15a10.719,10.719,0,0,0-10.714-10.72H222.286a10.719,10.719,0,0,0-10.714,10.72v21.42a10.719,10.719,0,0,0,10.714,10.72h12.5a5.358,5.358,0,0,1,5.357,5.35v1.79a14.308,14.308,0,0,1-14.286,14.28h-3.571a3.6,3.6,0,0,0-3.571,3.58v7.14a3.6,3.6,0,0,0,3.571,3.57h3.571a28.623,28.623,0,0,0,28.571-28.57v-39.28Zm50,0a10.719,10.719,0,0,0-10.714-10.72H272.284a10.719,10.719,0,0,0-10.714,10.72v21.42a10.719,10.719,0,0,0,10.714,10.72h12.5a5.358,5.358,0,0,1,5.357,5.35v1.79a14.308,14.308,0,0,1-14.286,14.28h-3.571a3.6,3.6,0,0,0-3.571,3.58v7.14a3.6,3.6,0,0,0,3.571,3.57h3.571a28.623,28.623,0,0,0,28.571-28.57v-39.28Z" transform="translate(-211.563 -3014.44)"/>
</svg>
