<svg xmlns="http://www.w3.org/2000/svg" viewBox="0 0 54.5 42"><defs><style>.cls-1{fill:#2aa1d3;}</style></defs><title>target</title><g id="Слой_2" data-name="Слой 2"><g id="Layer_1" data-name="Layer 1"><path class="cls-1" d="M50.08,21l4.13-4.12a1,1,0,0,0-.71-1.71H46.38a1,1,0,0,0-.71.29l-3.77,3.76a20.95,20.95,0,1,0-1.45,9.7,1,1,0,1,0-1.85-.75A19.06,19.06,0,1,1,39.95,20H33.2a12.23,12.23,0,1,0-3.05,9.15,1,1,0,1,0-1.49-1.33A10.25,10.25,0,1,1,31.2,20H24a3.19,3.19,0,1,0,0,2H41.14l4.53,4.54a1,1,0,0,0,.71.29H53.5a1,1,0,0,0,.71-1.71ZM21,22.19a1.19,1.19,0,0,1,0-2.37,1.15,1.15,0,0,1,.6.19H21a1,1,0,0,0,0,2h.6A1.15,1.15,0,0,1,21,22.19Zm25.8,2.65L43,21l3.83-3.83h4.29L48,20.29a1,1,0,0,0,0,1.41l3.13,3.13Z"/></g></g></svg>