<svg xmlns="http://www.w3.org/2000/svg" width="21.1" height="17.16" viewBox="0 0 21.1 17.16">
  <defs>
    <style>
      .cls-1 {
        fill: #707a8c;
        fill-rule: evenodd;
      }
    </style>
  </defs>
  <path id="tw" class="cls-1" d="M1122.7,3433.55a8.419,8.419,0,0,1-2.49.67,4.358,4.358,0,0,0,1.9-2.38,8.7,8.7,0,0,1-2.75,1.04,4.33,4.33,0,0,0-7.49,2.96,4.621,4.621,0,0,0,.11.99,12.256,12.256,0,0,1-8.92-4.53,4.335,4.335,0,0,0,1.34,5.79,4.324,4.324,0,0,1-1.96-.55v0.06a4.324,4.324,0,0,0,3.47,4.24,4.3,4.3,0,0,1-1.14.15,5.306,5.306,0,0,1-.81-0.07,4.323,4.323,0,0,0,4.04,3,8.625,8.625,0,0,1-5.37,1.85,9.118,9.118,0,0,1-1.05-.05,12.323,12.323,0,0,0,18.96-10.37c0-.19,0-0.37-0.01-0.56A9.421,9.421,0,0,0,1122.7,3433.55Z" transform="translate(-1101.59 -3431.5)"/>
</svg>
