<svg xmlns="http://www.w3.org/2000/svg" width="25.719" height="14.65" viewBox="0 0 25.719 14.65">
  <defs>
    <style>
      .cls-1 {
        fill: #707a8c;
        fill-rule: evenodd;
      }
    </style>
  </defs>
  <path id="vk" class="cls-1" d="M985.477,3435.49s-0.188-.53-1.353-0.39l-3.858.03a0.886,0.886,0,0,0-.51.08,0.794,0.794,0,0,0-.334.42,24.579,24.579,0,0,1-1.434,3.01c-1.715,2.92-2.411,3.08-2.693,2.89-0.656-.41-0.482-1.68-0.482-2.59,0-2.84.429-4.02-.844-4.33a7.022,7.022,0,0,0-1.809-.18,8.245,8.245,0,0,0-3.2.33c-0.442.21-.777,0.69-0.576,0.72a1.763,1.763,0,0,1,1.139.58,3.892,3.892,0,0,1,.388,1.75c0.148,3.34-.535,3.75-0.535,3.75-0.523.28-1.434-.19-2.774-2.95a26.444,26.444,0,0,1-1.38-2.86,1,1,0,0,0-.321-0.43,1.352,1.352,0,0,0-.59-0.24l-3.67.02a0.958,0.958,0,0,0-.764.26,0.6,0.6,0,0,0-.013.65A35.631,35.631,0,0,0,966,3446.13s2.988,3.12,6.378,2.91h1.54a1.141,1.141,0,0,0,.71-0.3,1.014,1.014,0,0,0,.2-0.68c-0.027-2.06.938-2.37,0.938-2.37,0.938-.3,2.144,1.99,3.43,2.88a2.843,2.843,0,0,0,1.715.52l3.429-.05a0.946,0.946,0,0,0,.951-1.52,11.413,11.413,0,0,0-2.558-2.96c-2.144-1.99-1.863-1.67.736-5.13C985.048,3437.33,985.678,3436.04,985.477,3435.49Z" transform="translate(-959.781 -3434.44)"/>
</svg>
