<svg xmlns="http://www.w3.org/2000/svg" width="24" height="17.16" viewBox="0 0 24 17.16">
  <defs>
    <style>
      .cls-1 {
        fill: #707a8c;
        fill-rule: evenodd;
      }
    </style>
  </defs>
  <path id="youtube" class="cls-1" d="M1328.71,3440.42a0.831,0.831,0,0,1-.4.72l-6.86,4.29a0.821,0.821,0,0,1-.46.13,0.99,0.99,0,0,1-.41-0.1,0.874,0.874,0,0,1-.44-0.75v-8.58a0.862,0.862,0,0,1,.44-0.75,0.828,0.828,0,0,1,.87.03l6.86,4.29A0.819,0.819,0,0,1,1328.71,3440.42Zm6.86,0a26.941,26.941,0,0,0-.42-5.82,3.068,3.068,0,0,0-2.59-2.42,122.62,122.62,0,0,0-17.98,0,3.068,3.068,0,0,0-2.59,2.42,26.328,26.328,0,0,0-.43,5.82,26.8,26.8,0,0,0,.42,5.81,3.066,3.066,0,0,0,2.6,2.43,122.62,122.62,0,0,0,17.98,0,3.044,3.044,0,0,0,2.58-2.43A26.194,26.194,0,0,0,1335.57,3440.42Z" transform="translate(-1311.56 -3431.84)"/>
</svg>
