<svg xmlns="http://www.w3.org/2000/svg" viewBox="0 0 144 48"><defs><style>.cls-1{fill:#29a0d3;}.cls-1,.cls-2,.cls-3{fill-rule:evenodd;}.cls-2{fill:#a3be1d;}.cls-3{fill:#824e98;}.cls-4{fill:#fff;}</style></defs><title>logo_main</title><g id="Слой_2" data-name="Слой 2"><g id="Слой_1-2" data-name="Слой 1"><path class="cls-1" d="M96,0h48V48H96Z"/><path class="cls-2" d="M48,0H96V48H48Z"/><path class="cls-3" d="M0,0H48V48H0Z"/><polygon class="cls-4" points="112.42 8.86 112.42 15.51 117.12 15.51 117.12 39.49 124.87 39.49 124.87 15.51 129.57 15.51 129.57 8.86 112.42 8.86"/><polygon class="cls-4" points="73.34 20.57 70.78 20.57 70.78 8.86 63.04 8.86 63.04 39.49 70.78 39.49 70.78 27.26 73.34 27.26 73.34 39.49 81.08 39.49 81.08 8.86 73.34 8.86 73.34 20.57"/><path class="cls-4" d="M19.18,8.86,13,39.49h7.79l.75-5.54h4.8l.79,5.54h7.74L28.68,8.86Zm3.3,18.79L23,23.87l.84-6h.26l.84,6,.53,3.83Z"/></g></g></svg>