<svg xmlns="http://www.w3.org/2000/svg" width="17.281" height="17.281" viewBox="0 0 17.281 17.281">
  <defs>
    <style>
      .cls-1 {
        fill: #8ab71b;
        fill-rule: evenodd;
      }
    </style>
  </defs>
  <path id="phone_icon" class="cls-1" d="M989.3,49.364a0.625,0.625,0,0,0-.037-0.258,2.173,2.173,0,0,0-.933-0.651c-0.7-.393-1.413-0.774-2.1-1.179a2.522,2.522,0,0,0-1.093-.565c-0.749,0-1.843,2.223-2.506,2.223a2.639,2.639,0,0,1-1.056-.479,12.216,12.216,0,0,1-5.024-5.024,2.64,2.64,0,0,1-.479-1.056c0-.663,2.223-1.756,2.223-2.506a2.521,2.521,0,0,0-.565-1.093c-0.405-.688-0.786-1.4-1.179-2.1a2.172,2.172,0,0,0-.651-0.934,0.628,0.628,0,0,0-.258-0.037,5.473,5.473,0,0,0-1.708.381,3.246,3.246,0,0,0-1.3,1.5A4.7,4.7,0,0,0,972,39.869a9.457,9.457,0,0,0,.848,3.218,11.442,11.442,0,0,0,1.019,2.149,20.741,20.741,0,0,0,5.9,5.9,11.477,11.477,0,0,0,2.15,1.02,9.464,9.464,0,0,0,3.218.847,4.7,4.7,0,0,0,2.285-.626,3.239,3.239,0,0,0,1.5-1.3A5.472,5.472,0,0,0,989.3,49.364Z" transform="translate(-972 -35.719)"/>
</svg>
